<?xml version="1.0" standalone="no"?>
<!DOCTYPE svg PUBLIC "-//W3C//DTD SVG 20010904//EN"
 "http://www.w3.org/TR/2001/REC-SVG-20010904/DTD/svg10.dtd">
<svg version="1.0" xmlns="http://www.w3.org/2000/svg"
 width="256.000000pt" height="256.000000pt" viewBox="0 0 256.000000 256.000000"
 preserveAspectRatio="xMidYMid meet">

<g transform="translate(0.000000,256.000000) scale(0.100000,-0.100000)"
fill="#000000" stroke="none">
<path d="M0 1285 l0 -1245 1280 0 1280 0 0 1245 0 1245 -1280 0 -1280 0 0
-1245z m1524 1025 c294 -64 588 -312 706 -596 63 -151 74 -212 74 -404 1 -153
-2 -186 -22 -260 -52 -191 -131 -330 -266 -468 -233 -240 -564 -350 -881 -294
-476 84 -825 479 -852 962 -20 361 152 710 449 911 127 87 310 154 468 173 66
8 235 -5 324 -24z"/>
<path d="M1160 2216 c-120 -22 -159 -35 -270 -92 -233 -119 -404 -333 -476
-594 -28 -100 -25 -357 4 -465 58 -211 205 -413 386 -532 166 -109 403 -168
581 -144 171 24 293 68 418 153 81 55 196 171 243 244 51 80 108 206 129 284
26 100 32 317 10 421 -56 280 -248 525 -508 649 -150 71 -366 103 -517 76z
m345 -146 c8 -13 -9 -99 -40 -205 -12 -44 -25 -91 -28 -105 -2 -14 -18 -74
-34 -135 -16 -60 -30 -122 -30 -136 -1 -24 4 -27 45 -33 24 -3 109 -6 188 -6
85 0 145 -4 149 -10 9 -15 -39 -93 -130 -216 -181 -241 -225 -302 -225 -309 0
-4 -15 -25 -32 -45 -45 -52 -118 -156 -118 -167 0 -5 -11 -20 -25 -33 -14 -13
-39 -44 -55 -69 -33 -52 -61 -73 -80 -61 -19 12 -17 22 81 380 23 85 43 171
43 190 1 34 0 35 -44 42 -25 3 -106 7 -181 7 -145 1 -167 8 -147 45 6 12 63
93 127 181 64 88 148 204 186 258 39 55 87 122 107 150 21 29 52 73 70 98 128
179 155 208 173 179z"/>
<path d="M1317 1759 c-15 -12 -34 -36 -42 -55 -8 -19 -18 -34 -24 -34 -5 0
-30 -30 -56 -67 -25 -38 -66 -95 -91 -128 -25 -33 -65 -90 -90 -127 -24 -37
-49 -70 -54 -73 -16 -10 -11 -42 8 -50 9 -4 85 -9 169 -12 98 -4 153 -10 156
-17 4 -10 -15 -98 -44 -206 -6 -25 -15 -65 -20 -90 -5 -25 -11 -61 -15 -80
l-6 -35 57 60 c72 75 375 492 375 516 0 26 -29 32 -190 38 l-145 6 -3 26 c-2
14 6 61 17 104 12 44 21 87 21 97 0 11 7 32 15 49 11 19 14 41 9 64 -7 41 -10
41 -47 14z"/>
</g>
</svg>
